<svg
    xmlns="http://www.w3.org/2000/svg"
    viewBox="0 0 360 199"
    id="vector">
    <g
        id="group"
        transform="translate(357.5 7) scale(-2 2)">
        <path
            id="path"
            d="M 145.43 9.1 C 145.43 8.57 145.641 8.061 146.016 7.686 C 146.391 7.311 146.9 7.1 147.43 7.1 C 147.96 7.1 148.469 7.311 148.844 7.686 C 149.219 8.061 149.43 8.57 149.43 9.1 C 149.43 9.63 149.219 10.139 148.844 10.514 C 148.469 10.889 147.96 11.1 147.43 11.1 C 146.9 11.1 146.391 10.889 146.016 10.514 C 145.641 10.139 145.43 9.63 145.43 9.1"
            fill="#00ff00"/>
        <path
            id="path_1"
            d="M 130.64 15.47 C 134.052 15.598 137.425 16.249 140.64 17.4"
            fill="none"
            stroke="#0000ff"
            stroke-width="1"/>
        <path
            id="path_2"
            d="M 131 15.5 L 110.64 15.5"
            fill="none"
            stroke="#0000ff"
            stroke-width="1"/>
        <path
            id="path_3"
            d="M 110.64 15.5 L 112.64 17"
            fill="none"
            stroke="#0000ff"
            stroke-width="1"/>
        <path
            id="path_4"
            d="M 110.64 15.5 L 112.64 14"
            fill="none"
            stroke="#0000ff"
            stroke-width="1"/>
        <path
            id="path_5"
            d="M 127.65 87.03 C 127.65 86.235 127.966 85.471 128.529 84.909 C 129.091 84.346 129.855 84.03 130.65 84.03 C 131.445 84.03 132.209 84.346 132.771 84.909 C 133.334 85.471 133.65 86.235 133.65 87.03 C 133.65 87.825 133.334 88.589 132.771 89.151 C 132.209 89.714 131.445 90.03 130.65 90.03 C 129.855 90.03 129.091 89.714 128.529 89.151 C 127.966 88.589 127.65 87.825 127.65 87.03"
            fill="none"
            stroke="#ff0000"
            stroke-width="2"/>
    </g>
</svg>
