<svg
    xmlns="http://www.w3.org/2000/svg"
    viewBox="0 0 360 199"
    id="vector">
    <g
        id="group"
        transform="translate(3.5 7) scale(2 2)">
        <path
            id="path"
            d="M 44.26 4.27 C 44.26 3.74 44.471 3.231 44.846 2.856 C 45.221 2.481 45.73 2.27 46.26 2.27 C 46.79 2.27 47.299 2.481 47.674 2.856 C 48.049 3.231 48.26 3.74 48.26 4.27 C 48.26 4.8 48.049 5.309 47.674 5.684 C 47.299 6.059 46.79 6.27 46.26 6.27 C 45.73 6.27 45.221 6.059 44.846 5.684 C 44.471 5.309 44.26 4.8 44.26 4.27"
            fill="#00ff00"/>
        <path
            id="path_1"
            d="M 40.26 15.2 C 34.749 16.783 29.695 19.661 25.521 23.591 C 21.347 27.522 18.171 32.394 16.26 37.8"
            fill="none"
            stroke="#0000ff"
            stroke-width="1"/>
        <path
            id="path_2"
            d="M 16.26 37.8 L 15.26 35.8"
            fill="none"
            stroke="#0000ff"
            stroke-width="1"/>
        <path
            id="path_3"
            d="M 16.26 37.8 L 18.26 36.8"
            fill="none"
            stroke="#0000ff"
            stroke-width="1"/>
        <path
            id="path_4"
            d="M 127.65 88.25 C 127.65 87.455 127.966 86.691 128.529 86.129 C 129.091 85.566 129.855 85.25 130.65 85.25 C 131.445 85.25 132.209 85.566 132.771 86.129 C 133.334 86.691 133.65 87.455 133.65 88.25 C 133.65 89.045 133.334 89.809 132.771 90.371 C 132.209 90.934 131.445 91.25 130.65 91.25 C 129.855 91.25 129.091 90.934 128.529 90.371 C 127.966 89.809 127.65 89.045 127.65 88.25"
            fill="none"
            stroke="#ff0000"
            stroke-width="2"/>
    </g>
</svg>
