<svg
    xmlns="http://www.w3.org/2000/svg"
    viewBox="0 0 360 199"
    id="vector">
    <g
        id="group"
        transform="translate(357.5 7) scale(-2 2)">
        <path
            id="path"
            d="M 119.31 84.59 C 119.31 84.06 119.521 83.551 119.896 83.176 C 120.271 82.801 120.78 82.59 121.31 82.59 C 121.84 82.59 122.349 82.801 122.724 83.176 C 123.099 83.551 123.31 84.06 123.31 84.59 C 123.31 85.12 123.099 85.629 122.724 86.004 C 122.349 86.379 121.84 86.59 121.31 86.59 C 120.78 86.59 120.271 86.379 119.896 86.004 C 119.521 85.629 119.31 85.12 119.31 84.59"
            fill="#00ff00"/>
        <path
            id="path_1"
            d="M 136.64 78 C 142.035 76.527 147.014 73.817 151.18 70.085 C 155.345 66.353 158.585 61.702 160.64 56.5"
            fill="none"
            stroke="#0000ff"
            stroke-width="1"/>
        <path
            id="path_2"
            d="M 160.64 56.5 L 158 57.5"
            fill="none"
            stroke="#0000ff"
            stroke-width="1"/>
        <path
            id="path_3"
            d="M 160.64 56.5 L 161.6 59"
            fill="none"
            stroke="#0000ff"
            stroke-width="1"/>
        <path
            id="path_4"
            d="M 127.65 84.59 C 127.65 83.795 127.966 83.031 128.529 82.469 C 129.091 81.906 129.855 81.59 130.65 81.59 C 131.445 81.59 132.209 81.906 132.771 82.469 C 133.334 83.031 133.65 83.795 133.65 84.59 C 133.65 85.385 133.334 86.149 132.771 86.711 C 132.209 87.274 131.445 87.59 130.65 87.59 C 129.855 87.59 129.091 87.274 128.529 86.711 C 127.966 86.149 127.65 85.385 127.65 84.59"
            fill="none"
            stroke="#ff0000"
            stroke-width="2"/>
    </g>
</svg>
