<svg
    xmlns="http://www.w3.org/2000/svg"
    viewBox="0 0 360 199"
    id="vector">
    <g
        id="group"
        transform="translate(357.5 7) scale(-2 2)">
        <path
            id="path"
            d="M 146.94 5.77 C 146.94 5.24 147.151 4.731 147.526 4.356 C 147.901 3.981 148.41 3.77 148.94 3.77 C 149.47 3.77 149.979 3.981 150.354 4.356 C 150.729 4.731 150.94 5.24 150.94 5.77 C 150.94 6.3 150.729 6.809 150.354 7.184 C 149.979 7.559 149.47 7.77 148.94 7.77 C 148.41 7.77 147.901 7.559 147.526 7.184 C 147.151 6.809 146.94 6.3 146.94 5.77"
            fill="#00ff00"/>
        <path
            id="path_1"
            d="M 130.64 15.47 C 134.052 15.598 137.425 16.249 140.64 17.4"
            fill="none"
            stroke="#0000ff"
            stroke-width="1"/>
        <path
            id="path_2"
            d="M 131 15.5 L 110.64 15.5"
            fill="none"
            stroke="#0000ff"
            stroke-width="1"/>
        <path
            id="path_3"
            d="M 110.64 15.5 L 112.64 17"
            fill="none"
            stroke="#0000ff"
            stroke-width="1"/>
        <path
            id="path_4"
            d="M 110.64 15.5 L 112.64 14"
            fill="none"
            stroke="#0000ff"
            stroke-width="1"/>
        <path
            id="path_5"
            d="M 127.65 90.69 C 127.65 89.895 127.966 89.131 128.529 88.569 C 129.091 88.006 129.855 87.69 130.65 87.69 C 131.445 87.69 132.209 88.006 132.771 88.569 C 133.334 89.131 133.65 89.895 133.65 90.69 C 133.65 91.485 133.334 92.249 132.771 92.811 C 132.209 93.374 131.445 93.69 130.65 93.69 C 129.855 93.69 129.091 93.374 128.529 92.811 C 127.966 92.249 127.65 91.485 127.65 90.69"
            fill="none"
            stroke="#ff0000"
            stroke-width="2"/>
    </g>
</svg>
