<svg
    xmlns="http://www.w3.org/2000/svg"
    viewBox="0 0 360 199"
    id="vector">
    <g
        id="group"
        transform="translate(357.5 7) scale(-2 2)">
        <path
            id="path"
            d="M 119.31 83.37 C 119.31 82.84 119.521 82.331 119.896 81.956 C 120.271 81.581 120.78 81.37 121.31 81.37 C 121.84 81.37 122.349 81.581 122.724 81.956 C 123.099 82.331 123.31 82.84 123.31 83.37 C 123.31 83.9 123.099 84.409 122.724 84.784 C 122.349 85.159 121.84 85.37 121.31 85.37 C 120.78 85.37 120.271 85.159 119.896 84.784 C 119.521 84.409 119.31 83.9 119.31 83.37"
            fill="#00ff00"/>
        <path
            id="path_1"
            d="M 136.64 78 C 142.035 76.527 147.014 73.817 151.18 70.085 C 155.345 66.353 158.585 61.702 160.64 56.5"
            fill="none"
            stroke="#0000ff"
            stroke-width="1"/>
        <path
            id="path_2"
            d="M 160.64 56.5 L 158 57.5"
            fill="none"
            stroke="#0000ff"
            stroke-width="1"/>
        <path
            id="path_3"
            d="M 160.64 56.5 L 161.6 59"
            fill="none"
            stroke="#0000ff"
            stroke-width="1"/>
        <path
            id="path_4"
            d="M 127.65 83.37 C 127.65 82.575 127.966 81.811 128.529 81.249 C 129.091 80.686 129.855 80.37 130.65 80.37 C 131.445 80.37 132.209 80.686 132.771 81.249 C 133.334 81.811 133.65 82.575 133.65 83.37 C 133.65 84.165 133.334 84.929 132.771 85.491 C 132.209 86.054 131.445 86.37 130.65 86.37 C 129.855 86.37 129.091 86.054 128.529 85.491 C 127.966 84.929 127.65 84.165 127.65 83.37"
            fill="none"
            stroke="#ff0000"
            stroke-width="2"/>
    </g>
</svg>
