<svg
    xmlns="http://www.w3.org/2000/svg"
    viewBox="0 0 360 199"
    id="vector">
    <g
        id="group"
        transform="translate(3.5 7) scale(2 2)">
        <path
            id="path"
            d="M 128.65 91.91 C 128.65 91.38 128.861 90.871 129.236 90.496 C 129.611 90.121 130.12 89.91 130.65 89.91 C 131.18 89.91 131.689 90.121 132.064 90.496 C 132.439 90.871 132.65 91.38 132.65 91.91 C 132.65 92.44 132.439 92.949 132.064 93.324 C 131.689 93.699 131.18 93.91 130.65 93.91 C 130.12 93.91 129.611 93.699 129.236 93.324 C 128.861 92.949 128.65 92.44 128.65 91.91"
            fill="#00ff00"/>
        <path
            id="path_1"
            d="M 136.64 78 C 142.035 76.527 147.014 73.817 151.18 70.085 C 155.345 66.353 158.585 61.702 160.64 56.5"
            fill="none"
            stroke="#0000ff"
            stroke-width="1"/>
        <path
            id="path_2"
            d="M 160.64 56.5 L 158 57.5"
            fill="none"
            stroke="#0000ff"
            stroke-width="1"/>
        <path
            id="path_3"
            d="M 160.64 56.5 L 161.6 59"
            fill="none"
            stroke="#0000ff"
            stroke-width="1"/>
        <path
            id="path_4"
            d="M 127.65 91.91 C 127.65 91.115 127.966 90.351 128.529 89.789 C 129.091 89.226 129.855 88.91 130.65 88.91 C 131.445 88.91 132.209 89.226 132.771 89.789 C 133.334 90.351 133.65 91.115 133.65 91.91 C 133.65 92.705 133.334 93.469 132.771 94.031 C 132.209 94.594 131.445 94.91 130.65 94.91 C 129.855 94.91 129.091 94.594 128.529 94.031 C 127.966 93.469 127.65 92.705 127.65 91.91"
            fill="none"
            stroke="#ff0000"
            stroke-width="2"/>
    </g>
</svg>
