<svg
    xmlns="http://www.w3.org/2000/svg"
    viewBox="0 0 360 199"
    id="vector">
    <g
        id="group"
        transform="translate(3.5 7) scale(2 2)">
        <path
            id="path"
            d="M 44.26 0.61 C 44.26 0.08 44.471 -0.429 44.846 -0.804 C 45.221 -1.179 45.73 -1.39 46.26 -1.39 C 46.79 -1.39 47.299 -1.179 47.674 -0.804 C 48.049 -0.429 48.26 0.08 48.26 0.61 C 48.26 1.14 48.049 1.649 47.674 2.024 C 47.299 2.399 46.79 2.61 46.26 2.61 C 45.73 2.61 45.221 2.399 44.846 2.024 C 44.471 1.649 44.26 1.14 44.26 0.61"
            fill="#00ff00"/>
        <path
            id="path_1"
            d="M 40.26 15.2 C 34.749 16.783 29.695 19.661 25.521 23.591 C 21.347 27.522 18.171 32.394 16.26 37.8"
            fill="none"
            stroke="#0000ff"
            stroke-width="1"/>
        <path
            id="path_2"
            d="M 16.26 37.8 L 15.26 35.8"
            fill="none"
            stroke="#0000ff"
            stroke-width="1"/>
        <path
            id="path_3"
            d="M 16.26 37.8 L 18.26 36.8"
            fill="none"
            stroke="#0000ff"
            stroke-width="1"/>
        <path
            id="path_4"
            d="M 127.65 91.91 C 127.65 91.115 127.966 90.351 128.529 89.789 C 129.091 89.226 129.855 88.91 130.65 88.91 C 131.445 88.91 132.209 89.226 132.771 89.789 C 133.334 90.351 133.65 91.115 133.65 91.91 C 133.65 92.705 133.334 93.469 132.771 94.031 C 132.209 94.594 131.445 94.91 130.65 94.91 C 129.855 94.91 129.091 94.594 128.529 94.031 C 127.966 93.469 127.65 92.705 127.65 91.91"
            fill="none"
            stroke="#ff0000"
            stroke-width="2"/>
    </g>
</svg>
