<svg
    xmlns="http://www.w3.org/2000/svg"
    viewBox="0 0 360 199"
    id="vector">
    <g
        id="group"
        transform="translate(3.5 7) scale(2 2)">
        <path
            id="path"
            d="M 128.65 87.03 C 128.65 86.5 128.861 85.991 129.236 85.616 C 129.611 85.241 130.12 85.03 130.65 85.03 C 131.18 85.03 131.689 85.241 132.064 85.616 C 132.439 85.991 132.65 86.5 132.65 87.03 C 132.65 87.56 132.439 88.069 132.064 88.444 C 131.689 88.819 131.18 89.03 130.65 89.03 C 130.12 89.03 129.611 88.819 129.236 88.444 C 128.861 88.069 128.65 87.56 128.65 87.03"
            fill="#00ff00"/>
        <path
            id="path_1"
            d="M 136.64 78 C 142.035 76.527 147.014 73.817 151.18 70.085 C 155.345 66.353 158.585 61.702 160.64 56.5"
            fill="none"
            stroke="#0000ff"
            stroke-width="1"/>
        <path
            id="path_2"
            d="M 160.64 56.5 L 158 57.5"
            fill="none"
            stroke="#0000ff"
            stroke-width="1"/>
        <path
            id="path_3"
            d="M 160.64 56.5 L 161.6 59"
            fill="none"
            stroke="#0000ff"
            stroke-width="1"/>
        <path
            id="path_4"
            d="M 127.65 87.03 C 127.65 86.235 127.966 85.471 128.529 84.909 C 129.091 84.346 129.855 84.03 130.65 84.03 C 131.445 84.03 132.209 84.346 132.771 84.909 C 133.334 85.471 133.65 86.235 133.65 87.03 C 133.65 87.825 133.334 88.589 132.771 89.151 C 132.209 89.714 131.445 90.03 130.65 90.03 C 129.855 90.03 129.091 89.714 128.529 89.151 C 127.966 88.589 127.65 87.825 127.65 87.03"
            fill="none"
            stroke="#ff0000"
            stroke-width="2"/>
    </g>
</svg>
