<svg
    xmlns="http://www.w3.org/2000/svg"
    viewBox="0 0 360 199"
    id="vector">
    <g
        id="group"
        transform="translate(357.5 7) scale(-2 2)">
        <path
            id="path"
            d="M 119.31 89.47 C 119.31 88.94 119.521 88.431 119.896 88.056 C 120.271 87.681 120.78 87.47 121.31 87.47 C 121.84 87.47 122.349 87.681 122.724 88.056 C 123.099 88.431 123.31 88.94 123.31 89.47 C 123.31 90 123.099 90.509 122.724 90.884 C 122.349 91.259 121.84 91.47 121.31 91.47 C 120.78 91.47 120.271 91.259 119.896 90.884 C 119.521 90.509 119.31 90 119.31 89.47"
            fill="#00ff00"/>
        <path
            id="path_1"
            d="M 136.64 78 C 142.035 76.527 147.014 73.817 151.18 70.085 C 155.345 66.353 158.585 61.702 160.64 56.5"
            fill="none"
            stroke="#0000ff"
            stroke-width="1"/>
        <path
            id="path_2"
            d="M 160.64 56.5 L 158 57.5"
            fill="none"
            stroke="#0000ff"
            stroke-width="1"/>
        <path
            id="path_3"
            d="M 160.64 56.5 L 161.6 59"
            fill="none"
            stroke="#0000ff"
            stroke-width="1"/>
        <path
            id="path_4"
            d="M 127.65 89.47 C 127.65 88.675 127.966 87.911 128.529 87.349 C 129.091 86.786 129.855 86.47 130.65 86.47 C 131.445 86.47 132.209 86.786 132.771 87.349 C 133.334 87.911 133.65 88.675 133.65 89.47 C 133.65 90.265 133.334 91.029 132.771 91.591 C 132.209 92.154 131.445 92.47 130.65 92.47 C 129.855 92.47 129.091 92.154 128.529 91.591 C 127.966 91.029 127.65 90.265 127.65 89.47"
            fill="none"
            stroke="#ff0000"
            stroke-width="2"/>
    </g>
</svg>
