<svg
    xmlns="http://www.w3.org/2000/svg"
    viewBox="0 0 360 199"
    id="vector">
    <g
        id="group"
        transform="translate(357.5 7) scale(-2 2)">
        <path
            id="path"
            d="M 44.26 6.71 C 44.26 6.18 44.471 5.671 44.846 5.296 C 45.221 4.921 45.73 4.71 46.26 4.71 C 46.79 4.71 47.299 4.921 47.674 5.296 C 48.049 5.671 48.26 6.18 48.26 6.71 C 48.26 7.24 48.049 7.749 47.674 8.124 C 47.299 8.499 46.79 8.71 46.26 8.71 C 45.73 8.71 45.221 8.499 44.846 8.124 C 44.471 7.749 44.26 7.24 44.26 6.71"
            fill="#00ff00"/>
        <path
            id="path_1"
            d="M 40.26 15.2 C 34.749 16.783 29.695 19.661 25.521 23.591 C 21.347 27.522 18.171 32.394 16.26 37.8"
            fill="none"
            stroke="#0000ff"
            stroke-width="1"/>
        <path
            id="path_2"
            d="M 16.26 37.8 L 15.26 35.8"
            fill="none"
            stroke="#0000ff"
            stroke-width="1"/>
        <path
            id="path_3"
            d="M 16.26 37.8 L 18.26 36.8"
            fill="none"
            stroke="#0000ff"
            stroke-width="1"/>
        <path
            id="path_4"
            d="M 127.65 85.81 C 127.65 85.015 127.966 84.251 128.529 83.689 C 129.091 83.126 129.855 82.81 130.65 82.81 C 131.445 82.81 132.209 83.126 132.771 83.689 C 133.334 84.251 133.65 85.015 133.65 85.81 C 133.65 86.605 133.334 87.369 132.771 87.931 C 132.209 88.494 131.445 88.81 130.65 88.81 C 129.855 88.81 129.091 88.494 128.529 87.931 C 127.966 87.369 127.65 86.605 127.65 85.81"
            fill="none"
            stroke="#ff0000"
            stroke-width="2"/>
    </g>
</svg>
