<svg
    xmlns="http://www.w3.org/2000/svg"
    viewBox="0 0 360 199"
    id="vector">
    <g
        id="group"
        transform="translate(3.5 7) scale(2 2)">
        <path
            id="path"
            d="M 119.31 87.03 C 119.31 86.5 119.521 85.991 119.896 85.616 C 120.271 85.241 120.78 85.03 121.31 85.03 C 121.84 85.03 122.349 85.241 122.724 85.616 C 123.099 85.991 123.31 86.5 123.31 87.03 C 123.31 87.56 123.099 88.069 122.724 88.444 C 122.349 88.819 121.84 89.03 121.31 89.03 C 120.78 89.03 120.271 88.819 119.896 88.444 C 119.521 88.069 119.31 87.56 119.31 87.03"
            fill="#00ff00"/>
        <path
            id="path_1"
            d="M 136.64 78 C 142.035 76.527 147.014 73.817 151.18 70.085 C 155.345 66.353 158.585 61.702 160.64 56.5"
            fill="none"
            stroke="#0000ff"
            stroke-width="1"/>
        <path
            id="path_2"
            d="M 160.64 56.5 L 158 57.5"
            fill="none"
            stroke="#0000ff"
            stroke-width="1"/>
        <path
            id="path_3"
            d="M 160.64 56.5 L 161.6 59"
            fill="none"
            stroke="#0000ff"
            stroke-width="1"/>
        <path
            id="path_4"
            d="M 127.65 87.03 C 127.65 86.235 127.966 85.471 128.529 84.909 C 129.091 84.346 129.855 84.03 130.65 84.03 C 131.445 84.03 132.209 84.346 132.771 84.909 C 133.334 85.471 133.65 86.235 133.65 87.03 C 133.65 87.825 133.334 88.589 132.771 89.151 C 132.209 89.714 131.445 90.03 130.65 90.03 C 129.855 90.03 129.091 89.714 128.529 89.151 C 127.966 88.589 127.65 87.825 127.65 87.03"
            fill="none"
            stroke="#ff0000"
            stroke-width="2"/>
    </g>
</svg>
