<svg
    xmlns="http://www.w3.org/2000/svg"
    viewBox="0 0 360 199"
    id="vector">
    <g
        id="group"
        transform="translate(3.5 7) scale(2 2)">
        <path
            id="path"
            d="M 119.31 88.25 C 119.31 87.72 119.521 87.211 119.896 86.836 C 120.271 86.461 120.78 86.25 121.31 86.25 C 121.84 86.25 122.349 86.461 122.724 86.836 C 123.099 87.211 123.31 87.72 123.31 88.25 C 123.31 88.78 123.099 89.289 122.724 89.664 C 122.349 90.039 121.84 90.25 121.31 90.25 C 120.78 90.25 120.271 90.039 119.896 89.664 C 119.521 89.289 119.31 88.78 119.31 88.25"
            fill="#00ff00"/>
        <path
            id="path_1"
            d="M 136.64 78 C 142.035 76.527 147.014 73.817 151.18 70.085 C 155.345 66.353 158.585 61.702 160.64 56.5"
            fill="none"
            stroke="#0000ff"
            stroke-width="1"/>
        <path
            id="path_2"
            d="M 160.64 56.5 L 158 57.5"
            fill="none"
            stroke="#0000ff"
            stroke-width="1"/>
        <path
            id="path_3"
            d="M 160.64 56.5 L 161.6 59"
            fill="none"
            stroke="#0000ff"
            stroke-width="1"/>
        <path
            id="path_4"
            d="M 127.65 88.25 C 127.65 87.455 127.966 86.691 128.529 86.129 C 129.091 85.566 129.855 85.25 130.65 85.25 C 131.445 85.25 132.209 85.566 132.771 86.129 C 133.334 86.691 133.65 87.455 133.65 88.25 C 133.65 89.045 133.334 89.809 132.771 90.371 C 132.209 90.934 131.445 91.25 130.65 91.25 C 129.855 91.25 129.091 90.934 128.529 90.371 C 127.966 89.809 127.65 89.045 127.65 88.25"
            fill="none"
            stroke="#ff0000"
            stroke-width="2"/>
    </g>
</svg>
