<svg
    xmlns="http://www.w3.org/2000/svg"
    viewBox="0 0 360 199"
    id="vector">
    <g
        id="group"
        transform="translate(3.5 7) scale(2 2)">
        <path
            id="path"
            d="M 143.92 12.44 C 143.92 11.91 144.131 11.401 144.506 11.026 C 144.881 10.651 145.39 10.44 145.92 10.44 C 146.45 10.44 146.959 10.651 147.334 11.026 C 147.709 11.401 147.92 11.91 147.92 12.44 C 147.92 12.97 147.709 13.479 147.334 13.854 C 146.959 14.229 146.45 14.44 145.92 14.44 C 145.39 14.44 144.881 14.229 144.506 13.854 C 144.131 13.479 143.92 12.97 143.92 12.44"
            fill="#00ff00"/>
        <path
            id="path_1"
            d="M 130.64 15.47 C 134.052 15.598 137.425 16.249 140.64 17.4"
            fill="none"
            stroke="#0000ff"
            stroke-width="1"/>
        <path
            id="path_2"
            d="M 131 15.5 L 110.64 15.5"
            fill="none"
            stroke="#0000ff"
            stroke-width="1"/>
        <path
            id="path_3"
            d="M 110.64 15.5 L 112.64 17"
            fill="none"
            stroke="#0000ff"
            stroke-width="1"/>
        <path
            id="path_4"
            d="M 110.64 15.5 L 112.64 14"
            fill="none"
            stroke="#0000ff"
            stroke-width="1"/>
        <path
            id="path_5"
            d="M 127.65 83.37 C 127.65 82.575 127.966 81.811 128.529 81.249 C 129.091 80.686 129.855 80.37 130.65 80.37 C 131.445 80.37 132.209 80.686 132.771 81.249 C 133.334 81.811 133.65 82.575 133.65 83.37 C 133.65 84.165 133.334 84.929 132.771 85.491 C 132.209 86.054 131.445 86.37 130.65 86.37 C 129.855 86.37 129.091 86.054 128.529 85.491 C 127.966 84.929 127.65 84.165 127.65 83.37"
            fill="none"
            stroke="#ff0000"
            stroke-width="2"/>
    </g>
</svg>
