<svg
    xmlns="http://www.w3.org/2000/svg"
    viewBox="0 0 360 199"
    id="vector">
    <g
        id="group"
        transform="translate(3.5 7) scale(2 2)">
        <path
            id="path"
            d="M 128.65 88.25 C 128.65 87.72 128.861 87.211 129.236 86.836 C 129.611 86.461 130.12 86.25 130.65 86.25 C 131.18 86.25 131.689 86.461 132.064 86.836 C 132.439 87.211 132.65 87.72 132.65 88.25 C 132.65 88.78 132.439 89.289 132.064 89.664 C 131.689 90.039 131.18 90.25 130.65 90.25 C 130.12 90.25 129.611 90.039 129.236 89.664 C 128.861 89.289 128.65 88.78 128.65 88.25"
            fill="#00ff00"/>
        <path
            id="path_1"
            d="M 136.64 78 C 142.035 76.527 147.014 73.817 151.18 70.085 C 155.345 66.353 158.585 61.702 160.64 56.5"
            fill="none"
            stroke="#0000ff"
            stroke-width="1"/>
        <path
            id="path_2"
            d="M 160.64 56.5 L 158 57.5"
            fill="none"
            stroke="#0000ff"
            stroke-width="1"/>
        <path
            id="path_3"
            d="M 160.64 56.5 L 161.6 59"
            fill="none"
            stroke="#0000ff"
            stroke-width="1"/>
        <path
            id="path_4"
            d="M 127.65 88.25 C 127.65 87.455 127.966 86.691 128.529 86.129 C 129.091 85.566 129.855 85.25 130.65 85.25 C 131.445 85.25 132.209 85.566 132.771 86.129 C 133.334 86.691 133.65 87.455 133.65 88.25 C 133.65 89.045 133.334 89.809 132.771 90.371 C 132.209 90.934 131.445 91.25 130.65 91.25 C 129.855 91.25 129.091 90.934 128.529 90.371 C 127.966 89.809 127.65 89.045 127.65 88.25"
            fill="none"
            stroke="#ff0000"
            stroke-width="2"/>
    </g>
</svg>
