<svg
    xmlns="http://www.w3.org/2000/svg"
    viewBox="0 0 360 199"
    id="vector">
    <g
        id="group"
        transform="translate(357.5 7) scale(-2 2)">
        <path
            id="path"
            d="M 128.65 83.37 C 128.65 82.84 128.861 82.331 129.236 81.956 C 129.611 81.581 130.12 81.37 130.65 81.37 C 131.18 81.37 131.689 81.581 132.064 81.956 C 132.439 82.331 132.65 82.84 132.65 83.37 C 132.65 83.9 132.439 84.409 132.064 84.784 C 131.689 85.159 131.18 85.37 130.65 85.37 C 130.12 85.37 129.611 85.159 129.236 84.784 C 128.861 84.409 128.65 83.9 128.65 83.37"
            fill="#00ff00"/>
        <path
            id="path_1"
            d="M 136.64 78 C 142.035 76.527 147.014 73.817 151.18 70.085 C 155.345 66.353 158.585 61.702 160.64 56.5"
            fill="none"
            stroke="#0000ff"
            stroke-width="1"/>
        <path
            id="path_2"
            d="M 160.64 56.5 L 158 57.5"
            fill="none"
            stroke="#0000ff"
            stroke-width="1"/>
        <path
            id="path_3"
            d="M 160.64 56.5 L 161.6 59"
            fill="none"
            stroke="#0000ff"
            stroke-width="1"/>
        <path
            id="path_4"
            d="M 43.26 9.15 C 43.26 8.517 43.461 7.899 43.833 7.387 C 44.205 6.874 44.731 6.493 45.333 6.297 C 45.935 6.101 46.585 6.101 47.187 6.297 C 47.789 6.493 48.315 6.874 48.687 7.387 C 49.059 7.899 49.26 8.517 49.26 9.15 C 49.26 9.783 49.059 10.401 48.687 10.913 C 48.315 11.426 47.789 11.807 47.187 12.003 C 46.585 12.199 45.935 12.199 45.333 12.003 C 44.731 11.807 44.205 11.426 43.833 10.913 C 43.461 10.401 43.26 9.783 43.26 9.15"
            fill="none"
            stroke="#ff0000"
            stroke-width="2"/>
    </g>
</svg>
