<svg
    xmlns="http://www.w3.org/2000/svg"
    viewBox="0 0 360 199"
    id="vector">
    <g
        id="group"
        transform="translate(3.5 7) scale(2 2)">
        <path
            id="path"
            d="M 144.93 10.22 C 144.93 9.69 145.141 9.181 145.516 8.806 C 145.891 8.431 146.4 8.22 146.93 8.22 C 147.46 8.22 147.969 8.431 148.344 8.806 C 148.719 9.181 148.93 9.69 148.93 10.22 C 148.93 10.75 148.719 11.259 148.344 11.634 C 147.969 12.009 147.46 12.22 146.93 12.22 C 146.4 12.22 145.891 12.009 145.516 11.634 C 145.141 11.259 144.93 10.75 144.93 10.22"
            fill="#00ff00"/>
        <path
            id="path_1"
            d="M 130.64 15.47 C 134.052 15.598 137.425 16.249 140.64 17.4"
            fill="none"
            stroke="#0000ff"
            stroke-width="1"/>
        <path
            id="path_2"
            d="M 131 15.5 L 110.64 15.5"
            fill="none"
            stroke="#0000ff"
            stroke-width="1"/>
        <path
            id="path_3"
            d="M 110.64 15.5 L 112.64 17"
            fill="none"
            stroke="#0000ff"
            stroke-width="1"/>
        <path
            id="path_4"
            d="M 110.64 15.5 L 112.64 14"
            fill="none"
            stroke="#0000ff"
            stroke-width="1"/>
        <path
            id="path_5"
            d="M 127.65 85.81 C 127.65 85.015 127.966 84.251 128.529 83.689 C 129.091 83.126 129.855 82.81 130.65 82.81 C 131.445 82.81 132.209 83.126 132.771 83.689 C 133.334 84.251 133.65 85.015 133.65 85.81 C 133.65 86.605 133.334 87.369 132.771 87.931 C 132.209 88.494 131.445 88.81 130.65 88.81 C 129.855 88.81 129.091 88.494 128.529 87.931 C 127.966 87.369 127.65 86.605 127.65 85.81"
            fill="none"
            stroke="#ff0000"
            stroke-width="2"/>
    </g>
</svg>
