<svg
    xmlns="http://www.w3.org/2000/svg"
    viewBox="0 0 360 199"
    id="vector">
    <g
        id="group"
        transform="translate(357.5 7) scale(-2 2)">
        <path
            id="path"
            d="M 145.93 7.99 C 145.93 7.46 146.141 6.951 146.516 6.576 C 146.891 6.201 147.4 5.99 147.93 5.99 C 148.46 5.99 148.969 6.201 149.344 6.576 C 149.719 6.951 149.93 7.46 149.93 7.99 C 149.93 8.52 149.719 9.029 149.344 9.404 C 148.969 9.779 148.46 9.99 147.93 9.99 C 147.4 9.99 146.891 9.779 146.516 9.404 C 146.141 9.029 145.93 8.52 145.93 7.99"
            fill="#00ff00"/>
        <path
            id="path_1"
            d="M 130.64 15.47 C 134.052 15.598 137.425 16.249 140.64 17.4"
            fill="none"
            stroke="#0000ff"
            stroke-width="1"/>
        <path
            id="path_2"
            d="M 131 15.5 L 110.64 15.5"
            fill="none"
            stroke="#0000ff"
            stroke-width="1"/>
        <path
            id="path_3"
            d="M 110.64 15.5 L 112.64 17"
            fill="none"
            stroke="#0000ff"
            stroke-width="1"/>
        <path
            id="path_4"
            d="M 110.64 15.5 L 112.64 14"
            fill="none"
            stroke="#0000ff"
            stroke-width="1"/>
        <path
            id="path_5"
            d="M 127.65 88.25 C 127.65 87.455 127.966 86.691 128.529 86.129 C 129.091 85.566 129.855 85.25 130.65 85.25 C 131.445 85.25 132.209 85.566 132.771 86.129 C 133.334 86.691 133.65 87.455 133.65 88.25 C 133.65 89.045 133.334 89.809 132.771 90.371 C 132.209 90.934 131.445 91.25 130.65 91.25 C 129.855 91.25 129.091 90.934 128.529 90.371 C 127.966 89.809 127.65 89.045 127.65 88.25"
            fill="none"
            stroke="#ff0000"
            stroke-width="2"/>
    </g>
</svg>
