<svg
    xmlns="http://www.w3.org/2000/svg"
    viewBox="0 0 360 199"
    id="vector">
    <g
        id="group"
        transform="translate(3.5 7.0) scale(2 2)">
        <path
            id="path"
            d="M 46.26 4.88 C 37.523 4.88 29.006 7.647 21.937 12.783 C 14.869 17.918 9.605 25.163 6.905 33.473 C 4.205 41.782 4.205 50.738 6.905 59.047 C 9.605 67.357 14.869 74.602 21.937 79.737 C 29.006 84.873 37.523 87.64 46.26 87.64"
            fill="none"
            stroke="#b94a3b"
            stroke-width="9.76"/>
        <path
            id="path_1"
            d="M 46.26 9.76 C 38.537 9.736 31.003 12.163 24.746 16.69 C 18.49 21.217 13.829 27.616 11.438 34.959 C 9.047 42.302 9.047 50.218 11.438 57.561 C 13.829 64.904 18.49 71.303 24.746 75.83 C 31.003 80.357 38.537 82.784 46.26 82.76"
            fill="none"
            stroke="#ffffff"
            stroke-width="0.2"/>
        <path
            id="path_2"
            d="M 46.26 8.54 C 38.279 8.515 30.493 11.023 24.027 15.702 C 17.562 20.38 12.745 26.993 10.274 34.581 C 7.803 42.17 7.803 50.35 10.274 57.939 C 12.745 65.527 17.562 72.14 24.027 76.818 C 30.493 81.497 38.279 84.005 46.26 83.98"
            fill="none"
            stroke="#ffffff"
            stroke-width="0.2"/>
        <path
            id="path_3"
            d="M 46.26 7.32 C 35.936 7.32 26.025 11.425 18.725 18.725 C 11.425 26.025 7.32 35.936 7.32 46.26 C 7.32 56.584 11.425 66.495 18.725 73.795 C 26.025 81.095 35.936 85.2 46.26 85.2"
            fill="none"
            stroke="#ffffff"
            stroke-width="0.2"/>
        <path
            id="path_4"
            d="M 46.26 6.1 C 35.613 6.1 25.391 10.334 17.863 17.863 C 10.334 25.391 6.1 35.613 6.1 46.26 C 6.1 56.907 10.334 67.129 17.863 74.657 C 25.391 82.186 35.613 86.42 46.26 86.42"
            fill="none"
            stroke="#ffffff"
            stroke-width="0.2"/>
        <path
            id="path_5"
            d="M 46.26 4.88 C 37.523 4.88 29.006 7.647 21.937 12.783 C 14.869 17.918 9.605 25.163 6.905 33.473 C 4.205 41.782 4.205 50.738 6.905 59.047 C 9.605 67.357 14.869 74.602 21.937 79.737 C 29.006 84.873 37.523 87.64 46.26 87.64"
            fill="none"
            stroke="#ffffff"
            stroke-width="0.2"/>
        <path
            id="path_6"
            d="M 46.26 3.66 C 34.966 3.66 24.123 8.151 16.137 16.137 C 8.151 24.123 3.66 34.966 3.66 46.26 C 3.66 57.554 8.151 68.397 16.137 76.383 C 24.123 84.369 34.966 88.86 46.26 88.86"
            fill="none"
            stroke="#ffffff"
            stroke-width="0.2"/>
        <path
            id="path_7"
            d="M 46.26 2.44 C 34.643 2.44 23.489 7.06 15.275 15.275 C 7.06 23.489 2.44 34.643 2.44 46.26 C 2.44 57.877 7.06 69.031 15.275 77.245 C 23.489 85.46 34.643 90.08 46.26 90.08"
            fill="none"
            stroke="#ffffff"
            stroke-width="0.2"/>
        <path
            id="path_8"
            d="M 46.26 1.22 C 36.75 1.22 27.48 4.232 19.786 9.822 C 12.092 15.412 6.363 23.297 3.424 32.342 C 0.486 41.386 0.486 51.134 3.424 60.178 C 6.363 69.223 12.092 77.108 19.786 82.698 C 27.48 88.288 36.75 91.3 46.26 91.3"
            fill="none"
            stroke="#ffffff"
            stroke-width="0.2"/>
        <path
            id="path_9"
            d="M 46.26 0 C 33.996 0 22.221 4.877 13.549 13.549 C 4.877 22.221 0 33.996 0 46.26 C 0 58.524 4.877 70.299 13.549 78.971 C 22.221 87.643 33.996 92.52 46.26 92.52"
            fill="none"
            stroke="#ffffff"
            stroke-width="0.2"/>
        <path
            id="path_10"
            d="M 46.26 0 L 130.65 0 L 130.65 9.76 L 46.26 9.76"
            fill="#b94a3b"/>
        <path
            id="path_11"
            d="M 46.26 82.76 L 130.65 82.76 L 130.65 92.52 L 46.26 92.52"
            fill="#b94a3b"/>
        <path
            id="path_12"
            d="M 46.26 0 L 130.65 0"
            fill="none"
            stroke="#ffffff"
            stroke-width="0.2"/>
        <path
            id="path_13"
            d="M 46.26 1.22 L 130.65 1.22"
            fill="none"
            stroke="#ffffff"
            stroke-width="0.2"/>
        <path
            id="path_14"
            d="M 46.26 2.44 L 130.65 2.44"
            fill="none"
            stroke="#ffffff"
            stroke-width="0.2"/>
        <path
            id="path_15"
            d="M 46.26 3.66 L 130.65 3.66"
            fill="none"
            stroke="#ffffff"
            stroke-width="0.2"/>
        <path
            id="path_16"
            d="M 46.26 4.88 L 130.65 4.88"
            fill="none"
            stroke="#ffffff"
            stroke-width="0.2"/>
        <path
            id="path_17"
            d="M 46.26 6.1 L 130.65 6.1"
            fill="none"
            stroke="#ffffff"
            stroke-width="0.2"/>
        <path
            id="path_18"
            d="M 46.26 7.32 L 130.65 7.32"
            fill="none"
            stroke="#ffffff"
            stroke-width="0.2"/>
        <path
            id="path_19"
            d="M 46.26 8.54 L 130.65 8.54"
            fill="none"
            stroke="#ffffff"
            stroke-width="0.2"/>
        <path
            id="path_20"
            d="M 46.26 9.76 L 130.65 9.76"
            fill="none"
            stroke="#ffffff"
            stroke-width="0.2"/>
        <path
            id="path_21"
            d="M 46.26 82.76 L 130.65 82.76"
            fill="none"
            stroke="#ffffff"
            stroke-width="0.2"/>
        <path
            id="path_22"
            d="M 46.26 83.98 L 130.65 83.98"
            fill="none"
            stroke="#ffffff"
            stroke-width="0.2"/>
        <path
            id="path_23"
            d="M 46.26 85.2 L 130.65 85.2"
            fill="none"
            stroke="#ffffff"
            stroke-width="0.2"/>
        <path
            id="path_24"
            d="M 46.26 86.42 L 130.65 86.42"
            fill="none"
            stroke="#ffffff"
            stroke-width="0.2"/>
        <path
            id="path_25"
            d="M 46.26 87.64 L 130.65 87.64"
            fill="none"
            stroke="#ffffff"
            stroke-width="0.2"/>
        <path
            id="path_26"
            d="M 46.26 88.86 L 130.65 88.86"
            fill="none"
            stroke="#ffffff"
            stroke-width="0.2"/>
        <path
            id="path_27"
            d="M 46.26 90.08 L 130.65 90.08"
            fill="none"
            stroke="#ffffff"
            stroke-width="0.2"/>
        <path
            id="path_28"
            d="M 46.26 91.3 L 130.65 91.3"
            fill="none"
            stroke="#ffffff"
            stroke-width="0.2"/>
        <path
            id="path_29"
            d="M 46.26 92.52 L 130.65 92.52"
            fill="none"
            stroke="#ffffff"
            stroke-width="0.2"/>
        <path
            id="path_30"
            d="M 130.65 4.88 C 139.387 4.88 147.904 7.647 154.973 12.783 C 162.041 17.918 167.305 25.163 170.005 33.473 C 172.705 41.782 172.705 50.738 170.005 59.047 C 167.305 67.357 162.041 74.602 154.973 79.737 C 147.904 84.873 139.387 87.64 130.65 87.64"
            fill="none"
            stroke="#b94a3b"
            stroke-width="9.76"/>
        <path
            id="path_31"
            d="M 130.65 9.76 C 138.373 9.736 145.907 12.163 152.164 16.69 C 158.42 21.217 163.081 27.616 165.472 34.959 C 167.863 42.302 167.863 50.218 165.472 57.561 C 163.081 64.904 158.42 71.303 152.164 75.83 C 145.907 80.357 138.373 82.784 130.65 82.76"
            fill="none"
            stroke="#ffffff"
            stroke-width="0.2"/>
        <path
            id="path_32"
            d="M 130.65 8.54 C 138.631 8.515 146.417 11.023 152.883 15.702 C 159.348 20.38 164.165 26.993 166.636 34.581 C 169.107 42.17 169.107 50.35 166.636 57.939 C 164.165 65.527 159.348 72.14 152.883 76.818 C 146.417 81.497 138.631 84.005 130.65 83.98"
            fill="none"
            stroke="#ffffff"
            stroke-width="0.2"/>
        <path
            id="path_33"
            d="M 130.65 7.32 C 140.974 7.32 150.885 11.425 158.185 18.725 C 165.485 26.025 169.59 35.936 169.59 46.26 C 169.59 56.584 165.485 66.495 158.185 73.795 C 150.885 81.095 140.974 85.2 130.65 85.2"
            fill="none"
            stroke="#ffffff"
            stroke-width="0.2"/>
        <path
            id="path_34"
            d="M 130.65 6.1 C 141.297 6.1 151.519 10.334 159.047 17.863 C 166.576 25.391 170.81 35.613 170.81 46.26 C 170.81 56.907 166.576 67.129 159.047 74.657 C 151.519 82.186 141.297 86.42 130.65 86.42"
            fill="none"
            stroke="#ffffff"
            stroke-width="0.2"/>
        <path
            id="path_35"
            d="M 130.65 4.88 C 139.387 4.88 147.904 7.647 154.973 12.783 C 162.041 17.918 167.305 25.163 170.005 33.473 C 172.705 41.782 172.705 50.738 170.005 59.047 C 167.305 67.357 162.041 74.602 154.973 79.737 C 147.904 84.873 139.387 87.64 130.65 87.64"
            fill="none"
            stroke="#ffffff"
            stroke-width="0.2"/>
        <path
            id="path_36"
            d="M 130.65 3.66 C 141.944 3.66 152.787 8.151 160.773 16.137 C 168.759 24.123 173.25 34.966 173.25 46.26 C 173.25 57.554 168.759 68.397 160.773 76.383 C 152.787 84.369 141.944 88.86 130.65 88.86"
            fill="none"
            stroke="#ffffff"
            stroke-width="0.2"/>
        <path
            id="path_37"
            d="M 130.65 2.44 C 142.267 2.44 153.421 7.06 161.635 15.275 C 169.85 23.489 174.47 34.643 174.47 46.26 C 174.47 57.877 169.85 69.031 161.635 77.245 C 153.421 85.46 142.267 90.08 130.65 90.08"
            fill="none"
            stroke="#ffffff"
            stroke-width="0.2"/>
        <path
            id="path_38"
            d="M 130.65 1.22 C 140.16 1.22 149.43 4.232 157.124 9.822 C 164.818 15.412 170.547 23.297 173.486 32.342 C 176.424 41.386 176.424 51.134 173.486 60.178 C 170.547 69.223 164.818 77.108 157.124 82.698 C 149.43 88.288 140.16 91.3 130.65 91.3"
            fill="none"
            stroke="#ffffff"
            stroke-width="0.2"/>
        <path
            id="path_39"
            d="M 130.65 0 C 142.914 0 154.689 4.877 163.361 13.549 C 172.033 22.221 176.91 33.996 176.91 46.26 C 176.91 58.524 172.033 70.299 163.361 78.971 C 154.689 87.643 142.914 92.52 130.65 92.52"
            fill="none"
            stroke="#ffffff"
            stroke-width="0.2"/>
        <path
            id="path_40"
            d="M 46.26 0 L 46.26 9.76"
            fill="none"
            stroke="#ffffff"
            stroke-width="0.4"/>
        <path
            id="path_41"
            d="M 121.31 82.76 L 121.31 92.52"
            fill="none"
            stroke="#ffffff"
            stroke-width="0.4"/>
        <path
            id="path_42"
            d="M 130.65 82.76 L 130.65 92.52"
            fill="none"
            stroke="#ffffff"
            stroke-width="0.4"/>
        <path
            id="path_43"
            d="M 145.67 13 L 149.69 4.1"
            fill="none"
            stroke="#ffffff"
            stroke-width="0.4"/>
    </g>
</svg>
