<svg
    xmlns="http://www.w3.org/2000/svg"
    viewBox="0 0 360 199"
    id="vector">
    <g
        id="group"
        transform="translate(357.5 7) scale(-2 2)">
        <path
            id="path"
            d="M 128.65 90.69 C 128.65 90.16 128.861 89.651 129.236 89.276 C 129.611 88.901 130.12 88.69 130.65 88.69 C 131.18 88.69 131.689 88.901 132.064 89.276 C 132.439 89.651 132.65 90.16 132.65 90.69 C 132.65 91.22 132.439 91.729 132.064 92.104 C 131.689 92.479 131.18 92.69 130.65 92.69 C 130.12 92.69 129.611 92.479 129.236 92.104 C 128.861 91.729 128.65 91.22 128.65 90.69"
            fill="#00ff00"/>
        <path
            id="path_1"
            d="M 136.64 78 C 142.035 76.527 147.014 73.817 151.18 70.085 C 155.345 66.353 158.585 61.702 160.64 56.5"
            fill="none"
            stroke="#0000ff"
            stroke-width="1"/>
        <path
            id="path_2"
            d="M 160.64 56.5 L 158 57.5"
            fill="none"
            stroke="#0000ff"
            stroke-width="1"/>
        <path
            id="path_3"
            d="M 160.64 56.5 L 161.6 59"
            fill="none"
            stroke="#0000ff"
            stroke-width="1"/>
        <path
            id="path_4"
            d="M 43.26 1.83 C 43.26 1.197 43.461 0.579 43.833 0.067 C 44.205 -0.446 44.731 -0.827 45.333 -1.023 C 45.935 -1.219 46.585 -1.219 47.187 -1.023 C 47.789 -0.827 48.315 -0.446 48.687 0.067 C 49.059 0.579 49.26 1.197 49.26 1.83 C 49.26 2.463 49.059 3.081 48.687 3.593 C 48.315 4.106 47.789 4.487 47.187 4.683 C 46.585 4.879 45.935 4.879 45.333 4.683 C 44.731 4.487 44.205 4.106 43.833 3.593 C 43.461 3.081 43.26 2.463 43.26 1.83"
            fill="none"
            stroke="#ff0000"
            stroke-width="2"/>
    </g>
</svg>
