<svg
    xmlns="http://www.w3.org/2000/svg"
    viewBox="0 0 360 199"
    id="vector">
    <g
        id="group"
        transform="translate(3.5 7) scale(2 2)">
        <path
            id="path"
            d="M 44.26 3.05 C 44.26 2.52 44.471 2.011 44.846 1.636 C 45.221 1.261 45.73 1.05 46.26 1.05 C 46.79 1.05 47.299 1.261 47.674 1.636 C 48.049 2.011 48.26 2.52 48.26 3.05 C 48.26 3.58 48.049 4.089 47.674 4.464 C 47.299 4.839 46.79 5.05 46.26 5.05 C 45.73 5.05 45.221 4.839 44.846 4.464 C 44.471 4.089 44.26 3.58 44.26 3.05"
            fill="#00ff00"/>
        <path
            id="path_1"
            d="M 40.26 15.2 C 34.749 16.783 29.695 19.661 25.521 23.591 C 21.347 27.522 18.171 32.394 16.26 37.8"
            fill="none"
            stroke="#0000ff"
            stroke-width="1"/>
        <path
            id="path_2"
            d="M 16.26 37.8 L 15.26 35.8"
            fill="none"
            stroke="#0000ff"
            stroke-width="1"/>
        <path
            id="path_3"
            d="M 16.26 37.8 L 18.26 36.8"
            fill="none"
            stroke="#0000ff"
            stroke-width="1"/>
        <path
            id="path_4"
            d="M 127.65 89.47 C 127.65 88.675 127.966 87.911 128.529 87.349 C 129.091 86.786 129.855 86.47 130.65 86.47 C 131.445 86.47 132.209 86.786 132.771 87.349 C 133.334 87.911 133.65 88.675 133.65 89.47 C 133.65 90.265 133.334 91.029 132.771 91.591 C 132.209 92.154 131.445 92.47 130.65 92.47 C 129.855 92.47 129.091 92.154 128.529 91.591 C 127.966 91.029 127.65 90.265 127.65 89.47"
            fill="none"
            stroke="#ff0000"
            stroke-width="2"/>
    </g>
</svg>
