<svg
    xmlns="http://www.w3.org/2000/svg"
    viewBox="0 0 360 199"
    id="vector">
    <g
        id="group"
        transform="translate(3.5 7) scale(2 2)">
        <path
            id="path"
            d="M 146.43 6.88 C 146.43 6.35 146.641 5.841 147.016 5.466 C 147.391 5.091 147.9 4.88 148.43 4.88 C 148.96 4.88 149.469 5.091 149.844 5.466 C 150.219 5.841 150.43 6.35 150.43 6.88 C 150.43 7.41 150.219 7.919 149.844 8.294 C 149.469 8.669 148.96 8.88 148.43 8.88 C 147.9 8.88 147.391 8.669 147.016 8.294 C 146.641 7.919 146.43 7.41 146.43 6.88"
            fill="#00ff00"/>
        <path
            id="path_1"
            d="M 130.64 15.47 C 134.052 15.598 137.425 16.249 140.64 17.4"
            fill="none"
            stroke="#0000ff"
            stroke-width="1"/>
        <path
            id="path_2"
            d="M 131 15.5 L 110.64 15.5"
            fill="none"
            stroke="#0000ff"
            stroke-width="1"/>
        <path
            id="path_3"
            d="M 110.64 15.5 L 112.64 17"
            fill="none"
            stroke="#0000ff"
            stroke-width="1"/>
        <path
            id="path_4"
            d="M 110.64 15.5 L 112.64 14"
            fill="none"
            stroke="#0000ff"
            stroke-width="1"/>
        <path
            id="path_5"
            d="M 127.65 89.47 C 127.65 88.675 127.966 87.911 128.529 87.349 C 129.091 86.786 129.855 86.47 130.65 86.47 C 131.445 86.47 132.209 86.786 132.771 87.349 C 133.334 87.911 133.65 88.675 133.65 89.47 C 133.65 90.265 133.334 91.029 132.771 91.591 C 132.209 92.154 131.445 92.47 130.65 92.47 C 129.855 92.47 129.091 92.154 128.529 91.591 C 127.966 91.029 127.65 90.265 127.65 89.47"
            fill="none"
            stroke="#ff0000"
            stroke-width="2"/>
    </g>
</svg>
