<svg
    xmlns="http://www.w3.org/2000/svg"
    viewBox="0 0 360 199"
    id="vector">
    <g
        id="group"
        transform="translate(3.5 7) scale(2 2)">
        <path
            id="path"
            d="M 128.65 89.47 C 128.65 88.94 128.861 88.431 129.236 88.056 C 129.611 87.681 130.12 87.47 130.65 87.47 C 131.18 87.47 131.689 87.681 132.064 88.056 C 132.439 88.431 132.65 88.94 132.65 89.47 C 132.65 90 132.439 90.509 132.064 90.884 C 131.689 91.259 131.18 91.47 130.65 91.47 C 130.12 91.47 129.611 91.259 129.236 90.884 C 128.861 90.509 128.65 90 128.65 89.47"
            fill="#00ff00"/>
        <path
            id="path_1"
            d="M 136.64 78 C 142.035 76.527 147.014 73.817 151.18 70.085 C 155.345 66.353 158.585 61.702 160.64 56.5"
            fill="none"
            stroke="#0000ff"
            stroke-width="1"/>
        <path
            id="path_2"
            d="M 160.64 56.5 L 158 57.5"
            fill="none"
            stroke="#0000ff"
            stroke-width="1"/>
        <path
            id="path_3"
            d="M 160.64 56.5 L 161.6 59"
            fill="none"
            stroke="#0000ff"
            stroke-width="1"/>
        <path
            id="path_4"
            d="M 43.26 3.05 C 43.26 2.417 43.461 1.799 43.833 1.287 C 44.205 0.774 44.731 0.393 45.333 0.197 C 45.935 0.001 46.585 0.001 47.187 0.197 C 47.789 0.393 48.315 0.774 48.687 1.287 C 49.059 1.799 49.26 2.417 49.26 3.05 C 49.26 3.683 49.059 4.301 48.687 4.813 C 48.315 5.326 47.789 5.707 47.187 5.903 C 46.585 6.099 45.935 6.099 45.333 5.903 C 44.731 5.707 44.205 5.326 43.833 4.813 C 43.461 4.301 43.26 3.683 43.26 3.05"
            fill="none"
            stroke="#ff0000"
            stroke-width="2"/>
    </g>
</svg>
