<svg
    xmlns="http://www.w3.org/2000/svg"
    viewBox="0 0 24 24"
    id="vector">
    <path
        id="path"
        d="M 9 9 M 5 9 C 5 7.94 5.422 6.921 6.172 6.172 C 6.921 5.422 7.94 5 9 5 C 10.06 5 11.079 5.422 11.828 6.172 C 12.578 6.921 13 7.94 13 9 C 13 10.06 12.578 11.079 11.828 11.828 C 11.079 12.578 10.06 13 9 13 C 7.94 13 6.921 12.578 6.172 11.828 C 5.422 11.079 5 10.06 5 9"
        fill="#000000"/>
    <path
        id="path_1"
        d="M 9 15 C 6.33 15 1 16.34 1 19 L 1 21 L 17 21 L 17 19 C 17 16.34 11.67 15 9 15 Z M 16.76 5.36 L 15.08 7.05 C 15.92 8.23 15.92 9.76 15.08 10.94 L 16.76 12.63 C 18.78 10.61 18.78 7.56 16.76 5.36 Z M 20.07 2 L 18.44 3.63 C 21.21 6.65 21.21 11.19 18.44 14.37 L 20.07 16 C 23.97 12.11 23.98 6.05 20.07 2 Z"
        fill="#000000"/>
</svg>
