<svg
    xmlns="http://www.w3.org/2000/svg"
    viewBox="0 0 360 199"
    id="vector">
    <g
        id="group"
        transform="translate(357.5 7) scale(-2 2)">
        <path
            id="path"
            d="M 128.65 85.81 C 128.65 85.28 128.861 84.771 129.236 84.396 C 129.611 84.021 130.12 83.81 130.65 83.81 C 131.18 83.81 131.689 84.021 132.064 84.396 C 132.439 84.771 132.65 85.28 132.65 85.81 C 132.65 86.34 132.439 86.849 132.064 87.224 C 131.689 87.599 131.18 87.81 130.65 87.81 C 130.12 87.81 129.611 87.599 129.236 87.224 C 128.861 86.849 128.65 86.34 128.65 85.81"
            fill="#00ff00"/>
        <path
            id="path_1"
            d="M 136.64 78 C 142.035 76.527 147.014 73.817 151.18 70.085 C 155.345 66.353 158.585 61.702 160.64 56.5"
            fill="none"
            stroke="#0000ff"
            stroke-width="1"/>
        <path
            id="path_2"
            d="M 160.64 56.5 L 158 57.5"
            fill="none"
            stroke="#0000ff"
            stroke-width="1"/>
        <path
            id="path_3"
            d="M 160.64 56.5 L 161.6 59"
            fill="none"
            stroke="#0000ff"
            stroke-width="1"/>
        <path
            id="path_4"
            d="M 43.26 6.71 C 43.26 6.077 43.461 5.459 43.833 4.947 C 44.205 4.434 44.731 4.053 45.333 3.857 C 45.935 3.661 46.585 3.661 47.187 3.857 C 47.789 4.053 48.315 4.434 48.687 4.947 C 49.059 5.459 49.26 6.077 49.26 6.71 C 49.26 7.343 49.059 7.961 48.687 8.473 C 48.315 8.986 47.789 9.367 47.187 9.563 C 46.585 9.759 45.935 9.759 45.333 9.563 C 44.731 9.367 44.205 8.986 43.833 8.473 C 43.461 7.961 43.26 7.343 43.26 6.71"
            fill="none"
            stroke="#ff0000"
            stroke-width="2"/>
    </g>
</svg>
