<svg
    xmlns="http://www.w3.org/2000/svg"
    viewBox="0 0 360 199"
    id="vector">
    <g
        id="group"
        transform="translate(3.5 7) scale(2 2)">
        <path
            id="path"
            d="M 119.31 90.69 C 119.31 90.16 119.521 89.651 119.896 89.276 C 120.271 88.901 120.78 88.69 121.31 88.69 C 121.84 88.69 122.349 88.901 122.724 89.276 C 123.099 89.651 123.31 90.16 123.31 90.69 C 123.31 91.22 123.099 91.729 122.724 92.104 C 122.349 92.479 121.84 92.69 121.31 92.69 C 120.78 92.69 120.271 92.479 119.896 92.104 C 119.521 91.729 119.31 91.22 119.31 90.69"
            fill="#00ff00"/>
        <path
            id="path_1"
            d="M 136.64 78 C 142.035 76.527 147.014 73.817 151.18 70.085 C 155.345 66.353 158.585 61.702 160.64 56.5"
            fill="none"
            stroke="#0000ff"
            stroke-width="1"/>
        <path
            id="path_2"
            d="M 160.64 56.5 L 158 57.5"
            fill="none"
            stroke="#0000ff"
            stroke-width="1"/>
        <path
            id="path_3"
            d="M 160.64 56.5 L 161.6 59"
            fill="none"
            stroke="#0000ff"
            stroke-width="1"/>
        <path
            id="path_4"
            d="M 127.65 90.69 C 127.65 89.895 127.966 89.131 128.529 88.569 C 129.091 88.006 129.855 87.69 130.65 87.69 C 131.445 87.69 132.209 88.006 132.771 88.569 C 133.334 89.131 133.65 89.895 133.65 90.69 C 133.65 91.485 133.334 92.249 132.771 92.811 C 132.209 93.374 131.445 93.69 130.65 93.69 C 129.855 93.69 129.091 93.374 128.529 92.811 C 127.966 92.249 127.65 91.485 127.65 90.69"
            fill="none"
            stroke="#ff0000"
            stroke-width="2"/>
    </g>
</svg>
