<svg
    xmlns="http://www.w3.org/2000/svg"
    viewBox="0 0 360 199"
    id="vector">
    <g
        id="group"
        transform="translate(3.5 7) scale(2 2)">
        <path
            id="path"
            d="M 128.65 84.59 C 128.65 84.06 128.861 83.551 129.236 83.176 C 129.611 82.801 130.12 82.59 130.65 82.59 C 131.18 82.59 131.689 82.801 132.064 83.176 C 132.439 83.551 132.65 84.06 132.65 84.59 C 132.65 85.12 132.439 85.629 132.064 86.004 C 131.689 86.379 131.18 86.59 130.65 86.59 C 130.12 86.59 129.611 86.379 129.236 86.004 C 128.861 85.629 128.65 85.12 128.65 84.59"
            fill="#00ff00"/>
        <path
            id="path_1"
            d="M 136.64 78 C 142.035 76.527 147.014 73.817 151.18 70.085 C 155.345 66.353 158.585 61.702 160.64 56.5"
            fill="none"
            stroke="#0000ff"
            stroke-width="1"/>
        <path
            id="path_2"
            d="M 160.64 56.5 L 158 57.5"
            fill="none"
            stroke="#0000ff"
            stroke-width="1"/>
        <path
            id="path_3"
            d="M 160.64 56.5 L 161.6 59"
            fill="none"
            stroke="#0000ff"
            stroke-width="1"/>
        <path
            id="path_4"
            d="M 127.65 84.59 C 127.65 83.795 127.966 83.031 128.529 82.469 C 129.091 81.906 129.855 81.59 130.65 81.59 C 131.445 81.59 132.209 81.906 132.771 82.469 C 133.334 83.031 133.65 83.795 133.65 84.59 C 133.65 85.385 133.334 86.149 132.771 86.711 C 132.209 87.274 131.445 87.59 130.65 87.59 C 129.855 87.59 129.091 87.274 128.529 86.711 C 127.966 86.149 127.65 85.385 127.65 84.59"
            fill="none"
            stroke="#ff0000"
            stroke-width="2"/>
    </g>
</svg>
