<svg
    xmlns="http://www.w3.org/2000/svg"
    viewBox="0 0 360 199"
    id="vector">
    <g
        id="group"
        transform="translate(3.5 7) scale(2 2)">
        <path
            id="path"
            d="M 128.65 84.59 C 128.65 84.06 128.861 83.551 129.236 83.176 C 129.611 82.801 130.12 82.59 130.65 82.59 C 131.18 82.59 131.689 82.801 132.064 83.176 C 132.439 83.551 132.65 84.06 132.65 84.59 C 132.65 85.12 132.439 85.629 132.064 86.004 C 131.689 86.379 131.18 86.59 130.65 86.59 C 130.12 86.59 129.611 86.379 129.236 86.004 C 128.861 85.629 128.65 85.12 128.65 84.59"
            fill="#00ff00"/>
        <path
            id="path_1"
            d="M 136.64 78 C 142.035 76.527 147.014 73.817 151.18 70.085 C 155.345 66.353 158.585 61.702 160.64 56.5"
            fill="none"
            stroke="#0000ff"
            stroke-width="1"/>
        <path
            id="path_2"
            d="M 160.64 56.5 L 158 57.5"
            fill="none"
            stroke="#0000ff"
            stroke-width="1"/>
        <path
            id="path_3"
            d="M 160.64 56.5 L 161.6 59"
            fill="none"
            stroke="#0000ff"
            stroke-width="1"/>
        <path
            id="path_4"
            d="M 43.26 7.93 C 43.26 7.297 43.461 6.679 43.833 6.167 C 44.205 5.654 44.731 5.273 45.333 5.077 C 45.935 4.881 46.585 4.881 47.187 5.077 C 47.789 5.273 48.315 5.654 48.687 6.167 C 49.059 6.679 49.26 7.297 49.26 7.93 C 49.26 8.563 49.059 9.181 48.687 9.693 C 48.315 10.206 47.789 10.587 47.187 10.783 C 46.585 10.979 45.935 10.979 45.333 10.783 C 44.731 10.587 44.205 10.206 43.833 9.693 C 43.461 9.181 43.26 8.563 43.26 7.93"
            fill="none"
            stroke="#ff0000"
            stroke-width="2"/>
    </g>
</svg>
