<svg
    xmlns="http://www.w3.org/2000/svg"
    viewBox="0 0 360 199"
    id="vector">
    <g
        id="group"
        transform="translate(357.5 7) scale(-2 2)">
        <path
            id="path"
            d="M 128.65 83.37 C 128.65 82.84 128.861 82.331 129.236 81.956 C 129.611 81.581 130.12 81.37 130.65 81.37 C 131.18 81.37 131.689 81.581 132.064 81.956 C 132.439 82.331 132.65 82.84 132.65 83.37 C 132.65 83.9 132.439 84.409 132.064 84.784 C 131.689 85.159 131.18 85.37 130.65 85.37 C 130.12 85.37 129.611 85.159 129.236 84.784 C 128.861 84.409 128.65 83.9 128.65 83.37"
            fill="#00ff00"/>
        <path
            id="path_1"
            d="M 136.64 78 C 142.035 76.527 147.014 73.817 151.18 70.085 C 155.345 66.353 158.585 61.702 160.64 56.5"
            fill="none"
            stroke="#0000ff"
            stroke-width="1"/>
        <path
            id="path_2"
            d="M 160.64 56.5 L 158 57.5"
            fill="none"
            stroke="#0000ff"
            stroke-width="1"/>
        <path
            id="path_3"
            d="M 160.64 56.5 L 161.6 59"
            fill="none"
            stroke="#0000ff"
            stroke-width="1"/>
        <path
            id="path_4"
            d="M 127.65 83.37 C 127.65 82.575 127.966 81.811 128.529 81.249 C 129.091 80.686 129.855 80.37 130.65 80.37 C 131.445 80.37 132.209 80.686 132.771 81.249 C 133.334 81.811 133.65 82.575 133.65 83.37 C 133.65 84.165 133.334 84.929 132.771 85.491 C 132.209 86.054 131.445 86.37 130.65 86.37 C 129.855 86.37 129.091 86.054 128.529 85.491 C 127.966 84.929 127.65 84.165 127.65 83.37"
            fill="none"
            stroke="#ff0000"
            stroke-width="2"/>
    </g>
</svg>
