<svg
    xmlns="http://www.w3.org/2000/svg"
    viewBox="0 0 360 199"
    id="vector">
    <g
        id="group"
        transform="translate(357.5 7) scale(-2 2)">
        <path
            id="path"
            d="M 147.44 4.66 C 147.44 4.13 147.651 3.621 148.026 3.246 C 148.401 2.871 148.91 2.66 149.44 2.66 C 149.97 2.66 150.479 2.871 150.854 3.246 C 151.229 3.621 151.44 4.13 151.44 4.66 C 151.44 5.19 151.229 5.699 150.854 6.074 C 150.479 6.449 149.97 6.66 149.44 6.66 C 148.91 6.66 148.401 6.449 148.026 6.074 C 147.651 5.699 147.44 5.19 147.44 4.66"
            fill="#00ff00"/>
        <path
            id="path_1"
            d="M 130.64 15.47 C 134.052 15.598 137.425 16.249 140.64 17.4"
            fill="none"
            stroke="#0000ff"
            stroke-width="1"/>
        <path
            id="path_2"
            d="M 131 15.5 L 110.64 15.5"
            fill="none"
            stroke="#0000ff"
            stroke-width="1"/>
        <path
            id="path_3"
            d="M 110.64 15.5 L 112.64 17"
            fill="none"
            stroke="#0000ff"
            stroke-width="1"/>
        <path
            id="path_4"
            d="M 110.64 15.5 L 112.64 14"
            fill="none"
            stroke="#0000ff"
            stroke-width="1"/>
        <path
            id="path_5"
            d="M 127.65 91.91 C 127.65 91.115 127.966 90.351 128.529 89.789 C 129.091 89.226 129.855 88.91 130.65 88.91 C 131.445 88.91 132.209 89.226 132.771 89.789 C 133.334 90.351 133.65 91.115 133.65 91.91 C 133.65 92.705 133.334 93.469 132.771 94.031 C 132.209 94.594 131.445 94.91 130.65 94.91 C 129.855 94.91 129.091 94.594 128.529 94.031 C 127.966 93.469 127.65 92.705 127.65 91.91"
            fill="none"
            stroke="#ff0000"
            stroke-width="2"/>
    </g>
</svg>
