<svg
    xmlns="http://www.w3.org/2000/svg"
    viewBox="0 0 360 199"
    id="vector">
    <g
        id="group"
        transform="translate(357.5 7) scale(-2 2)">
        <path
            id="path"
            d="M 128.65 89.47 C 128.65 88.94 128.861 88.431 129.236 88.056 C 129.611 87.681 130.12 87.47 130.65 87.47 C 131.18 87.47 131.689 87.681 132.064 88.056 C 132.439 88.431 132.65 88.94 132.65 89.47 C 132.65 90 132.439 90.509 132.064 90.884 C 131.689 91.259 131.18 91.47 130.65 91.47 C 130.12 91.47 129.611 91.259 129.236 90.884 C 128.861 90.509 128.65 90 128.65 89.47"
            fill="#00ff00"/>
        <path
            id="path_1"
            d="M 136.64 78 C 142.035 76.527 147.014 73.817 151.18 70.085 C 155.345 66.353 158.585 61.702 160.64 56.5"
            fill="none"
            stroke="#0000ff"
            stroke-width="1"/>
        <path
            id="path_2"
            d="M 160.64 56.5 L 158 57.5"
            fill="none"
            stroke="#0000ff"
            stroke-width="1"/>
        <path
            id="path_3"
            d="M 160.64 56.5 L 161.6 59"
            fill="none"
            stroke="#0000ff"
            stroke-width="1"/>
        <path
            id="path_4"
            d="M 127.65 89.47 C 127.65 88.675 127.966 87.911 128.529 87.349 C 129.091 86.786 129.855 86.47 130.65 86.47 C 131.445 86.47 132.209 86.786 132.771 87.349 C 133.334 87.911 133.65 88.675 133.65 89.47 C 133.65 90.265 133.334 91.029 132.771 91.591 C 132.209 92.154 131.445 92.47 130.65 92.47 C 129.855 92.47 129.091 92.154 128.529 91.591 C 127.966 91.029 127.65 90.265 127.65 89.47"
            fill="none"
            stroke="#ff0000"
            stroke-width="2"/>
    </g>
</svg>
