<svg
    xmlns="http://www.w3.org/2000/svg"
    viewBox="0 0 360 199"
    id="vector">
    <g
        id="group"
        transform="translate(357.5 7) scale(-2 2)">
        <path
            id="path"
            d="M 44.26 1.83 C 44.26 1.3 44.471 0.791 44.846 0.416 C 45.221 0.041 45.73 -0.17 46.26 -0.17 C 46.79 -0.17 47.299 0.041 47.674 0.416 C 48.049 0.791 48.26 1.3 48.26 1.83 C 48.26 2.36 48.049 2.869 47.674 3.244 C 47.299 3.619 46.79 3.83 46.26 3.83 C 45.73 3.83 45.221 3.619 44.846 3.244 C 44.471 2.869 44.26 2.36 44.26 1.83"
            fill="#00ff00"/>
        <path
            id="path_1"
            d="M 40.26 15.2 C 34.749 16.783 29.695 19.661 25.521 23.591 C 21.347 27.522 18.171 32.394 16.26 37.8"
            fill="none"
            stroke="#0000ff"
            stroke-width="1"/>
        <path
            id="path_2"
            d="M 16.26 37.8 L 15.26 35.8"
            fill="none"
            stroke="#0000ff"
            stroke-width="1"/>
        <path
            id="path_3"
            d="M 16.26 37.8 L 18.26 36.8"
            fill="none"
            stroke="#0000ff"
            stroke-width="1"/>
        <path
            id="path_4"
            d="M 127.65 90.69 C 127.65 89.895 127.966 89.131 128.529 88.569 C 129.091 88.006 129.855 87.69 130.65 87.69 C 131.445 87.69 132.209 88.006 132.771 88.569 C 133.334 89.131 133.65 89.895 133.65 90.69 C 133.65 91.485 133.334 92.249 132.771 92.811 C 132.209 93.374 131.445 93.69 130.65 93.69 C 129.855 93.69 129.091 93.374 128.529 92.811 C 127.966 92.249 127.65 91.485 127.65 90.69"
            fill="none"
            stroke="#ff0000"
            stroke-width="2"/>
    </g>
</svg>
