<svg
    xmlns="http://www.w3.org/2000/svg"
    viewBox="0 0 360 199"
    id="vector">
    <g
        id="group"
        transform="translate(3.5 7) scale(2 2)">
        <path
            id="path"
            d="M 144.43 11.33 C 144.43 10.8 144.641 10.291 145.016 9.916 C 145.391 9.541 145.9 9.33 146.43 9.33 C 146.96 9.33 147.469 9.541 147.844 9.916 C 148.219 10.291 148.43 10.8 148.43 11.33 C 148.43 11.86 148.219 12.369 147.844 12.744 C 147.469 13.119 146.96 13.33 146.43 13.33 C 145.9 13.33 145.391 13.119 145.016 12.744 C 144.641 12.369 144.43 11.86 144.43 11.33"
            fill="#00ff00"/>
        <path
            id="path_1"
            d="M 130.64 15.47 C 134.052 15.598 137.425 16.249 140.64 17.4"
            fill="none"
            stroke="#0000ff"
            stroke-width="1"/>
        <path
            id="path_2"
            d="M 131 15.5 L 110.64 15.5"
            fill="none"
            stroke="#0000ff"
            stroke-width="1"/>
        <path
            id="path_3"
            d="M 110.64 15.5 L 112.64 17"
            fill="none"
            stroke="#0000ff"
            stroke-width="1"/>
        <path
            id="path_4"
            d="M 110.64 15.5 L 112.64 14"
            fill="none"
            stroke="#0000ff"
            stroke-width="1"/>
        <path
            id="path_5"
            d="M 127.65 84.59 C 127.65 83.795 127.966 83.031 128.529 82.469 C 129.091 81.906 129.855 81.59 130.65 81.59 C 131.445 81.59 132.209 81.906 132.771 82.469 C 133.334 83.031 133.65 83.795 133.65 84.59 C 133.65 85.385 133.334 86.149 132.771 86.711 C 132.209 87.274 131.445 87.59 130.65 87.59 C 129.855 87.59 129.091 87.274 128.529 86.711 C 127.966 86.149 127.65 85.385 127.65 84.59"
            fill="none"
            stroke="#ff0000"
            stroke-width="2"/>
    </g>
</svg>
