<svg
    xmlns="http://www.w3.org/2000/svg"
    viewBox="0 0 360 199"
    id="vector">
    <g
        id="group"
        transform="translate(3.5 7) scale(2 2)">
        <path
            id="path"
            d="M 44.26 7.93 C 44.26 7.4 44.471 6.891 44.846 6.516 C 45.221 6.141 45.73 5.93 46.26 5.93 C 46.79 5.93 47.299 6.141 47.674 6.516 C 48.049 6.891 48.26 7.4 48.26 7.93 C 48.26 8.46 48.049 8.969 47.674 9.344 C 47.299 9.719 46.79 9.93 46.26 9.93 C 45.73 9.93 45.221 9.719 44.846 9.344 C 44.471 8.969 44.26 8.46 44.26 7.93"
            fill="#00ff00"/>
        <path
            id="path_1"
            d="M 40.26 15.2 C 34.749 16.783 29.695 19.661 25.521 23.591 C 21.347 27.522 18.171 32.394 16.26 37.8"
            fill="none"
            stroke="#0000ff"
            stroke-width="1"/>
        <path
            id="path_2"
            d="M 16.26 37.8 L 15.26 35.8"
            fill="none"
            stroke="#0000ff"
            stroke-width="1"/>
        <path
            id="path_3"
            d="M 16.26 37.8 L 18.26 36.8"
            fill="none"
            stroke="#0000ff"
            stroke-width="1"/>
        <path
            id="path_4"
            d="M 127.65 84.59 C 127.65 83.795 127.966 83.031 128.529 82.469 C 129.091 81.906 129.855 81.59 130.65 81.59 C 131.445 81.59 132.209 81.906 132.771 82.469 C 133.334 83.031 133.65 83.795 133.65 84.59 C 133.65 85.385 133.334 86.149 132.771 86.711 C 132.209 87.274 131.445 87.59 130.65 87.59 C 129.855 87.59 129.091 87.274 128.529 86.711 C 127.966 86.149 127.65 85.385 127.65 84.59"
            fill="none"
            stroke="#ff0000"
            stroke-width="2"/>
    </g>
</svg>
