<svg
    xmlns="http://www.w3.org/2000/svg"
    viewBox="0 0 360 199"
    id="vector">
    <g
        id="group"
        transform="translate(357.5 7) scale(-2 2)">
        <path
            id="path"
            d="M 128.65 91.91 C 128.65 91.38 128.861 90.871 129.236 90.496 C 129.611 90.121 130.12 89.91 130.65 89.91 C 131.18 89.91 131.689 90.121 132.064 90.496 C 132.439 90.871 132.65 91.38 132.65 91.91 C 132.65 92.44 132.439 92.949 132.064 93.324 C 131.689 93.699 131.18 93.91 130.65 93.91 C 130.12 93.91 129.611 93.699 129.236 93.324 C 128.861 92.949 128.65 92.44 128.65 91.91"
            fill="#00ff00"/>
        <path
            id="path_1"
            d="M 136.64 78 C 142.035 76.527 147.014 73.817 151.18 70.085 C 155.345 66.353 158.585 61.702 160.64 56.5"
            fill="none"
            stroke="#0000ff"
            stroke-width="1"/>
        <path
            id="path_2"
            d="M 160.64 56.5 L 158 57.5"
            fill="none"
            stroke="#0000ff"
            stroke-width="1"/>
        <path
            id="path_3"
            d="M 160.64 56.5 L 161.6 59"
            fill="none"
            stroke="#0000ff"
            stroke-width="1"/>
        <path
            id="path_4"
            d="M 43.26 0.61 C 43.26 -0.023 43.461 -0.641 43.833 -1.153 C 44.205 -1.666 44.731 -2.047 45.333 -2.243 C 45.935 -2.439 46.585 -2.439 47.187 -2.243 C 47.789 -2.047 48.315 -1.666 48.687 -1.153 C 49.059 -0.641 49.26 -0.023 49.26 0.61 C 49.26 1.243 49.059 1.861 48.687 2.373 C 48.315 2.886 47.789 3.267 47.187 3.463 C 46.585 3.659 45.935 3.659 45.333 3.463 C 44.731 3.267 44.205 2.886 43.833 2.373 C 43.461 1.861 43.26 1.243 43.26 0.61"
            fill="none"
            stroke="#ff0000"
            stroke-width="2"/>
    </g>
</svg>
