<svg
    xmlns="http://www.w3.org/2000/svg"
    viewBox="0 0 360 199"
    id="vector">
    <g
        id="group"
        transform="translate(357.5 7) scale(-2 2)">
        <path
            id="path"
            d="M 128.65 88.25 C 128.65 87.72 128.861 87.211 129.236 86.836 C 129.611 86.461 130.12 86.25 130.65 86.25 C 131.18 86.25 131.689 86.461 132.064 86.836 C 132.439 87.211 132.65 87.72 132.65 88.25 C 132.65 88.78 132.439 89.289 132.064 89.664 C 131.689 90.039 131.18 90.25 130.65 90.25 C 130.12 90.25 129.611 90.039 129.236 89.664 C 128.861 89.289 128.65 88.78 128.65 88.25"
            fill="#00ff00"/>
        <path
            id="path_1"
            d="M 136.64 78 C 142.035 76.527 147.014 73.817 151.18 70.085 C 155.345 66.353 158.585 61.702 160.64 56.5"
            fill="none"
            stroke="#0000ff"
            stroke-width="1"/>
        <path
            id="path_2"
            d="M 160.64 56.5 L 158 57.5"
            fill="none"
            stroke="#0000ff"
            stroke-width="1"/>
        <path
            id="path_3"
            d="M 160.64 56.5 L 161.6 59"
            fill="none"
            stroke="#0000ff"
            stroke-width="1"/>
        <path
            id="path_4"
            d="M 43.26 4.27 C 43.26 3.637 43.461 3.019 43.833 2.507 C 44.205 1.994 44.731 1.613 45.333 1.417 C 45.935 1.221 46.585 1.221 47.187 1.417 C 47.789 1.613 48.315 1.994 48.687 2.507 C 49.059 3.019 49.26 3.637 49.26 4.27 C 49.26 4.903 49.059 5.521 48.687 6.033 C 48.315 6.546 47.789 6.927 47.187 7.123 C 46.585 7.319 45.935 7.319 45.333 7.123 C 44.731 6.927 44.205 6.546 43.833 6.033 C 43.461 5.521 43.26 4.903 43.26 4.27"
            fill="none"
            stroke="#ff0000"
            stroke-width="2"/>
    </g>
</svg>
