<svg
    xmlns="http://www.w3.org/2000/svg"
    viewBox="0 0 360 199"
    id="vector">
    <g
        id="group"
        transform="translate(357.5 7) scale(-2 2)">
        <path
            id="path"
            d="M 44.26 5.49 C 44.26 4.96 44.471 4.451 44.846 4.076 C 45.221 3.701 45.73 3.49 46.26 3.49 C 46.79 3.49 47.299 3.701 47.674 4.076 C 48.049 4.451 48.26 4.96 48.26 5.49 C 48.26 6.02 48.049 6.529 47.674 6.904 C 47.299 7.279 46.79 7.49 46.26 7.49 C 45.73 7.49 45.221 7.279 44.846 6.904 C 44.471 6.529 44.26 6.02 44.26 5.49"
            fill="#00ff00"/>
        <path
            id="path_1"
            d="M 40.26 15.2 C 34.749 16.783 29.695 19.661 25.521 23.591 C 21.347 27.522 18.171 32.394 16.26 37.8"
            fill="none"
            stroke="#0000ff"
            stroke-width="1"/>
        <path
            id="path_2"
            d="M 16.26 37.8 L 15.26 35.8"
            fill="none"
            stroke="#0000ff"
            stroke-width="1"/>
        <path
            id="path_3"
            d="M 16.26 37.8 L 18.26 36.8"
            fill="none"
            stroke="#0000ff"
            stroke-width="1"/>
        <path
            id="path_4"
            d="M 127.65 87.03 C 127.65 86.235 127.966 85.471 128.529 84.909 C 129.091 84.346 129.855 84.03 130.65 84.03 C 131.445 84.03 132.209 84.346 132.771 84.909 C 133.334 85.471 133.65 86.235 133.65 87.03 C 133.65 87.825 133.334 88.589 132.771 89.151 C 132.209 89.714 131.445 90.03 130.65 90.03 C 129.855 90.03 129.091 89.714 128.529 89.151 C 127.966 88.589 127.65 87.825 127.65 87.03"
            fill="none"
            stroke="#ff0000"
            stroke-width="2"/>
    </g>
</svg>
