<svg
    xmlns="http://www.w3.org/2000/svg"
    viewBox="0 0 360 199"
    id="vector">
    <g
        id="group"
        transform="translate(357.5 7) scale(-2 2)">
        <path
            id="path"
            d="M 128.65 85.81 C 128.65 85.28 128.861 84.771 129.236 84.396 C 129.611 84.021 130.12 83.81 130.65 83.81 C 131.18 83.81 131.689 84.021 132.064 84.396 C 132.439 84.771 132.65 85.28 132.65 85.81 C 132.65 86.34 132.439 86.849 132.064 87.224 C 131.689 87.599 131.18 87.81 130.65 87.81 C 130.12 87.81 129.611 87.599 129.236 87.224 C 128.861 86.849 128.65 86.34 128.65 85.81"
            fill="#00ff00"/>
        <path
            id="path_1"
            d="M 136.64 78 C 142.035 76.527 147.014 73.817 151.18 70.085 C 155.345 66.353 158.585 61.702 160.64 56.5"
            fill="none"
            stroke="#0000ff"
            stroke-width="1"/>
        <path
            id="path_2"
            d="M 160.64 56.5 L 158 57.5"
            fill="none"
            stroke="#0000ff"
            stroke-width="1"/>
        <path
            id="path_3"
            d="M 160.64 56.5 L 161.6 59"
            fill="none"
            stroke="#0000ff"
            stroke-width="1"/>
        <path
            id="path_4"
            d="M 127.65 85.81 C 127.65 85.015 127.966 84.251 128.529 83.689 C 129.091 83.126 129.855 82.81 130.65 82.81 C 131.445 82.81 132.209 83.126 132.771 83.689 C 133.334 84.251 133.65 85.015 133.65 85.81 C 133.65 86.605 133.334 87.369 132.771 87.931 C 132.209 88.494 131.445 88.81 130.65 88.81 C 129.855 88.81 129.091 88.494 128.529 87.931 C 127.966 87.369 127.65 86.605 127.65 85.81"
            fill="none"
            stroke="#ff0000"
            stroke-width="2"/>
    </g>
</svg>
