<svg
    xmlns="http://www.w3.org/2000/svg"
    viewBox="0 0 360 199"
    id="vector">
    <g
        id="group"
        transform="translate(357.5 7) scale(-2 2)">
        <path
            id="path"
            d="M 128.65 87.03 C 128.65 86.5 128.861 85.991 129.236 85.616 C 129.611 85.241 130.12 85.03 130.65 85.03 C 131.18 85.03 131.689 85.241 132.064 85.616 C 132.439 85.991 132.65 86.5 132.65 87.03 C 132.65 87.56 132.439 88.069 132.064 88.444 C 131.689 88.819 131.18 89.03 130.65 89.03 C 130.12 89.03 129.611 88.819 129.236 88.444 C 128.861 88.069 128.65 87.56 128.65 87.03"
            fill="#00ff00"/>
        <path
            id="path_1"
            d="M 136.64 78 C 142.035 76.527 147.014 73.817 151.18 70.085 C 155.345 66.353 158.585 61.702 160.64 56.5"
            fill="none"
            stroke="#0000ff"
            stroke-width="1"/>
        <path
            id="path_2"
            d="M 160.64 56.5 L 158 57.5"
            fill="none"
            stroke="#0000ff"
            stroke-width="1"/>
        <path
            id="path_3"
            d="M 160.64 56.5 L 161.6 59"
            fill="none"
            stroke="#0000ff"
            stroke-width="1"/>
        <path
            id="path_4"
            d="M 43.26 5.49 C 43.26 4.857 43.461 4.239 43.833 3.727 C 44.205 3.214 44.731 2.833 45.333 2.637 C 45.935 2.441 46.585 2.441 47.187 2.637 C 47.789 2.833 48.315 3.214 48.687 3.727 C 49.059 4.239 49.26 4.857 49.26 5.49 C 49.26 6.123 49.059 6.741 48.687 7.253 C 48.315 7.766 47.789 8.147 47.187 8.343 C 46.585 8.539 45.935 8.539 45.333 8.343 C 44.731 8.147 44.205 7.766 43.833 7.253 C 43.461 6.741 43.26 6.123 43.26 5.49"
            fill="none"
            stroke="#ff0000"
            stroke-width="2"/>
    </g>
</svg>
