<svg
    xmlns="http://www.w3.org/2000/svg"
    viewBox="0 0 360 199"
    id="vector">
    <g
        id="group"
        transform="translate(357.5 7) scale(-2 2)">
        <path
            id="path"
            d="M 44.26 9.15 C 44.26 8.62 44.471 8.111 44.846 7.736 C 45.221 7.361 45.73 7.15 46.26 7.15 C 46.79 7.15 47.299 7.361 47.674 7.736 C 48.049 8.111 48.26 8.62 48.26 9.15 C 48.26 9.68 48.049 10.189 47.674 10.564 C 47.299 10.939 46.79 11.15 46.26 11.15 C 45.73 11.15 45.221 10.939 44.846 10.564 C 44.471 10.189 44.26 9.68 44.26 9.15"
            fill="#00ff00"/>
        <path
            id="path_1"
            d="M 40.26 15.2 C 34.749 16.783 29.695 19.661 25.521 23.591 C 21.347 27.522 18.171 32.394 16.26 37.8"
            fill="none"
            stroke="#0000ff"
            stroke-width="1"/>
        <path
            id="path_2"
            d="M 16.26 37.8 L 15.26 35.8"
            fill="none"
            stroke="#0000ff"
            stroke-width="1"/>
        <path
            id="path_3"
            d="M 16.26 37.8 L 18.26 36.8"
            fill="none"
            stroke="#0000ff"
            stroke-width="1"/>
        <path
            id="path_4"
            d="M 127.65 83.37 C 127.65 82.575 127.966 81.811 128.529 81.249 C 129.091 80.686 129.855 80.37 130.65 80.37 C 131.445 80.37 132.209 80.686 132.771 81.249 C 133.334 81.811 133.65 82.575 133.65 83.37 C 133.65 84.165 133.334 84.929 132.771 85.491 C 132.209 86.054 131.445 86.37 130.65 86.37 C 129.855 86.37 129.091 86.054 128.529 85.491 C 127.966 84.929 127.65 84.165 127.65 83.37"
            fill="none"
            stroke="#ff0000"
            stroke-width="2"/>
    </g>
</svg>
